<?xml version="1.0" encoding="UTF-8"?>
<svg width="32px" height="16px" viewBox="0 0 32 16" version="1.1" xmlns="http://www.w3.org/2000/svg" xmlns:xlink="http://www.w3.org/1999/xlink">
    <!-- Generator: Sketch 55.2 (78181) - https://sketchapp.com -->
    <title>Group 7</title>
    <desc>Created with Sketch.</desc>
    <defs>
        <polygon id="path-1" points="0 0.04277 31.306574 0.04277 31.306574 15.729948 0 15.729948"></polygon>
        <polygon id="path-3" points="0 15.81723 31.3066 15.81723 31.3066 0.13 0 0.13"></polygon>
    </defs>
    <g id="Page-1" stroke="none" stroke-width="1" fill="none" fill-rule="evenodd">
        <g id="PT-compare" transform="translate(-75.000000, -934.000000)">
            <g id="Group-7" transform="translate(75.000000, 934.000000)">
                <g id="Group-3" transform="translate(0.000000, 0.087230)">
                    <mask id="mask-2" fill="white">
                        <use xlink:href="#path-1"></use>
                    </mask>
                    <g id="Clip-2"></g>
                    <path d="M2.406014,1.123278 C1.675024,1.123278 1.080534,1.708148 1.080534,2.427308 L1.080534,13.345748 C1.080534,14.064648 1.675024,14.649518 2.406014,14.649518 L25.282764,14.649518 C26.013624,14.649518 26.608244,14.064648 26.608244,13.345748 L26.608244,10.182848 L29.345394,10.182848 C29.831074,10.182848 30.226144,9.795318 30.226144,9.318738 L30.226144,6.454058 C30.226144,5.977478 29.831074,5.589818 29.345394,5.589818 L26.608244,5.589818 L26.608244,2.427308 C26.608244,1.708148 26.013624,1.123278 25.282764,1.123278 L2.406014,1.123278 Z M25.282764,15.729948 L2.406014,15.729948 C1.079364,15.729948 -2.6e-05,14.660438 -2.6e-05,13.345748 L-2.6e-05,2.427308 C-2.6e-05,1.112618 1.079364,0.042718 2.406014,0.042718 L25.282764,0.042718 C26.609414,0.042718 27.688804,1.112618 27.688804,2.427308 L27.688804,4.509388 L29.345394,4.509388 C30.426734,4.509388 31.306574,5.381818 31.306574,6.454058 L31.306574,9.318738 C31.306574,10.390978 30.426734,11.263408 29.345394,11.263408 L27.688804,11.263408 L27.688804,13.345748 C27.688804,14.660438 26.609414,15.729948 25.282764,15.729948 L25.282764,15.729948 Z" id="Fill-1" fill="#000000" mask="url(#mask-2)"></path>
                </g>
                <mask id="mask-4" fill="white">
                    <use xlink:href="#path-3"></use>
                </mask>
                <g id="Clip-5"></g>
                <polygon id="Fill-4" fill="#000000" mask="url(#mask-4)" points="2.86247 13.21684 8.80529 13.21684 8.80529 2.59194 2.86247 2.59194"></polygon>
                <polygon id="Fill-6" fill="#000000" mask="url(#mask-4)" points="10.66247 13.21684 16.60529 13.21684 16.60529 2.59194 10.66247 2.59194"></polygon>
            </g>
        </g>
    </g>
</svg>