<svg xmlns="http://www.w3.org/2000/svg" viewBox="0 0 483.537 483.537"><path d="M479.963 425.047L269.05 29.854a30.36 30.36 0 0 0-26.782-16.081h-.03c-11.217 0-21.492 6.17-26.782 16.05L3.603 425.016c-5.046 9.485-4.773 20.854.7 29.974 5.502 9.15 15.413 14.774 26.083 14.774H453.12a30.37 30.37 0 0 0 26.083-14.774c5.502-9.15 5.776-20.52.76-29.943zM242.24 408.965c-16.78 0-30.4-13.62-30.4-30.4s13.62-30.4 30.4-30.4c16.75 0 30.4 13.62 30.4 30.4s-13.618 30.4-30.4 30.4zm30.43-121.11c0 16.81-13.65 30.4-30.4 30.4-16.78 0-30.4-13.59-30.4-30.4V166.256c0-16.78 13.62-30.4 30.4-30.4 16.75 0 30.4 13.62 30.4 30.4v121.598z" fill="#ff1d1d"/></svg>