<?xml version="1.0" encoding="utf-8"?>
<svg width="49px" height="47px" viewBox="0 0 49 47" version="1.1" xmlns:xlink="http://www.w3.org/1999/xlink" xmlns="http://www.w3.org/2000/svg">
  <desc>Created with Lunacy</desc>
  <path d="M0 5.5888L13.6 16L8.303 0L1.5959 0" transform="translate(25.6001 30.3999)" id="Fill-30" fill="#FFFFFF" stroke="none" />
  <path d="M0 0L15.0091 11.2L18.4 0L0 0Z" transform="translate(0 17.6001)" id="Fill-31" fill="#FFFFFF" stroke="none" />
  <path d="M0 16L8.8 16L4.35497 0L4.29402 0.21908L4.30723 0.223355L0 16Z" transform="translate(20.7998 0)" id="Fill-32" fill="#FFFFFF" stroke="none" />
  <path d="M0 28.8L11.8683 19.6928L14.3082 11.7076L22.2902 11.7076L29.0237 6.62071L15.8624 6.62071L16.3318 5.08589L30.9497 5.08589L37.6 0L8.54892 0L0 28.8Z" transform="translate(11.2002 17.6001)" id="Fill-33" fill="#F15C2A" stroke="none" />
</svg>