<?xml version="1.0" encoding="utf-8"?>
<svg width="16px" height="16px" viewBox="0 0 16 16" version="1.1" xmlns:xlink="http://www.w3.org/1999/xlink" xmlns="http://www.w3.org/2000/svg">
  <desc>Created with Lunacy</desc>
  <defs>
    <path d="M0 0L16 0L16 16L0 16L0 0Z" id="path_1" />
    <clipPath id="mask_1">
      <use xlink:href="#path_1" />
    </clipPath>
  </defs>
  <g id="Page-1">
    <path d="M0 0L16 0L16 16L0 16L0 0Z" id="Clip-2" fill="none" stroke="none" />
    <g clip-path="url(#mask_1)">
      <path d="M9.71455 7.99994L15.6449 2.06967C16.1184 1.59624 16.1184 0.828494 15.6449 0.355069C15.1714 -0.118356 14.4037 -0.118356 13.9303 0.355069L7.99996 6.28534L2.06972 0.355069C1.5963 -0.118356 0.828636 -0.118356 0.35513 0.355069C-0.118377 0.828494 -0.118377 1.59624 0.35513 2.06967L6.28537 7.99994L0.35513 13.9303C-0.118377 14.4037 -0.118377 15.1715 0.35513 15.6449C0.591924 15.8816 0.902132 16 1.21242 16C1.52272 16 1.83301 15.8816 2.06972 15.6449L7.99996 9.71453L13.9303 15.6449C14.167 15.8816 14.4773 16 14.7876 16C15.0979 16 15.4082 15.8816 15.6449 15.6449C16.1184 15.1715 16.1184 14.4037 15.6449 13.9303L9.71455 7.99994Z" id="Fill-1" fill="#ADADAD" stroke="none" />
    </g>
  </g>
</svg>